<?xml version="1.0" standalone="no"?>
<!DOCTYPE svg PUBLIC "-//W3C//DTD SVG 20010904//EN"
 "http://www.w3.org/TR/2001/REC-SVG-20010904/DTD/svg10.dtd">
<svg version="1.0" xmlns="http://www.w3.org/2000/svg"
 width="200.000000pt" height="200.000000pt" viewBox="0 0 200.000000 200.000000"
 preserveAspectRatio="xMidYMid meet">

<g transform="translate(0.000000,200.000000) scale(0.100000,-0.100000)"
fill="#000000" stroke="none">
<path d="M1520 1759 c-115 -94 -178 -131 -201 -116 -19 12 -20 11 -122 -82
-36 -34 -40 -35 -125 -37 -48 -1 -126 -10 -173 -20 l-87 -17 -48 28 c-27 15
-71 46 -98 69 -47 38 -49 39 -63 21 -13 -19 -14 -19 -56 3 -23 12 -60 39 -82
58 -22 20 -51 43 -64 52 -22 15 -24 15 -37 -3 -8 -10 -14 -24 -14 -31 0 -7 -8
-10 -20 -7 -16 4 -23 -3 -36 -32 -14 -35 -21 -112 -13 -145 3 -9 -5 -16 -18
-18 -48 -7 -22 -80 49 -140 19 -16 28 -34 28 -52 0 -28 4 -32 102 -110 4 -3
-6 -47 -22 -98 -17 -50 -30 -103 -30 -116 0 -13 -12 -49 -26 -80 -17 -37 -27
-82 -31 -131 l-6 -75 43 -41 42 -40 -10 -102 c-12 -124 -37 -194 -97 -267 -53
-64 -69 -107 -62 -162 8 -57 21 -68 83 -68 54 0 54 0 48 27 -10 42 -23 51 -40
29 -8 -11 -14 -26 -14 -33 0 -21 -18 -15 -36 12 -29 45 -15 102 44 175 29 35
57 79 63 97 6 19 13 32 15 30 2 -2 15 -45 28 -96 l24 -92 -29 -34 c-27 -30
-28 -35 -13 -43 16 -9 16 -11 0 -33 -21 -30 -20 -39 3 -39 10 0 22 10 26 22
l8 23 4 -22 4 -23 245 0 244 0 0 26 c0 31 23 28 28 -4 4 -28 29 -29 37 -2 3
11 11 20 16 20 6 0 8 -8 4 -19 -5 -17 0 -19 45 -19 51 0 59 5 38 26 -9 9 -8
12 5 12 10 0 17 -8 17 -20 0 -19 7 -20 190 -20 159 0 190 2 190 14 0 8 -4 18
-10 21 -15 9 -12 25 5 25 8 0 22 11 31 25 l16 25 37 -52 c26 -38 44 -54 63
-56 21 -3 27 2 31 20 l4 23 8 -23 c10 -30 45 -26 62 8 9 18 13 20 13 8 0 -33
40 -21 56 17 32 77 10 162 -70 265 -76 98 -100 151 -131 282 l-13 58 35 42
c34 41 35 45 30 103 -3 33 -15 89 -27 125 -13 36 -24 85 -26 110 -2 25 -9 67
-15 94 -12 48 -11 49 21 74 26 20 31 30 26 52 -4 22 2 34 31 61 70 67 97 186
53 242 -11 14 -20 39 -20 56 0 37 -25 101 -39 101 -5 0 -14 14 -20 32 -11 30
-48 78 -60 78 -3 0 -44 -32 -91 -71z m116 -16 c8 -18 12 -38 9 -43 -4 -6 5
-14 18 -19 27 -11 38 -46 30 -99 -5 -28 -2 -34 16 -39 21 -5 26 -23 21 -88 -3
-41 -15 -61 -72 -123 -41 -43 -49 -57 -44 -77 10 -40 -17 -31 -50 16 -72 104
-259 239 -331 239 -32 0 -29 8 19 57 33 34 46 41 67 37 21 -5 49 9 131 64 58
38 116 81 129 96 28 30 38 26 57 -21z m-1162 -122 c75 -57 122 -78 144 -65 12
8 32 -1 83 -35 38 -25 68 -48 69 -51 0 -3 -33 -23 -73 -44 -68 -38 -168 -126
-212 -189 l-20 -28 -43 31 c-36 27 -41 35 -30 47 11 13 4 24 -44 67 -66 60
-89 96 -60 96 30 0 41 19 30 51 -6 17 -7 54 -3 84 6 49 8 54 25 45 19 -10 31
-1 43 33 8 21 8 21 91 -42z m809 -158 c111 -45 229 -154 278 -258 42 -88 38
-108 -11 -52 -52 59 -150 117 -150 89 0 -4 20 -17 44 -30 24 -13 58 -38 75
-56 54 -56 158 -331 146 -386 -3 -15 -26 -49 -50 -76 -41 -46 -44 -47 -45 -24
0 14 6 34 13 45 25 36 35 79 25 105 -5 14 -13 60 -18 102 -10 89 -67 217 -90
203 -3 -2 9 -36 29 -75 30 -62 35 -81 35 -145 1 -73 0 -75 -35 -111 -40 -40
-59 -38 -59 6 0 41 -16 46 -43 14 l-24 -27 -5 61 c-4 33 -13 75 -22 93 -9 18
-16 38 -16 46 0 7 -4 13 -8 13 -5 0 -13 -32 -19 -70 -14 -88 -34 -122 -71
-118 -21 2 -28 10 -34 41 -4 20 -18 56 -30 80 -13 23 -30 62 -38 85 -8 24 -19
42 -25 40 -5 -1 -8 -7 -6 -13 2 -5 6 -38 9 -72 10 -134 -22 -183 -116 -183
-38 0 -61 5 -74 17 -19 17 -20 16 -37 -6 l-18 -24 -19 28 c-25 39 -31 139 -10
189 19 45 19 46 5 46 -5 0 -19 -19 -30 -42 -11 -24 -31 -59 -45 -78 -21 -29
-25 -44 -23 -95 3 -59 2 -60 -27 -66 -19 -3 -36 0 -48 10 -11 9 -21 12 -23 6
-9 -25 -22 -37 -33 -30 -18 11 -50 86 -50 117 0 15 -4 29 -9 33 -16 9 -30 -28
-37 -97 -6 -65 -7 -65 -50 -87 -44 -21 -44 -21 -64 -1 -37 37 -23 216 25 310
27 54 101 136 150 167 43 27 56 43 34 43 -27 0 -106 -70 -165 -146 -34 -45
-37 -47 -30 -19 4 17 23 63 43 104 73 150 228 260 448 315 11 2 83 3 160 2
111 -3 150 -8 188 -23z m-449 -672 c-2 -2 -10 -1 -19 2 -16 7 -20 51 -8 84 5
13 10 4 18 -32 6 -28 10 -52 9 -54z m363 40 c6 -40 5 -41 -25 -41 l-30 0 16
50 c18 56 31 53 39 -9z m170 -7 c-7 -43 -11 -48 -31 -41 -12 5 -12 11 2 41 21
46 36 46 29 0z m-957 -131 c28 -47 12 -68 -25 -33 -20 19 -25 33 -25 75 0 29
3 68 7 86 7 31 8 29 15 -29 4 -35 16 -80 28 -99z m1175 78 c-7 -32 -25 -34
-25 -2 0 17 20 44 28 37 2 -3 1 -18 -3 -35z m-89 -27 l44 6 0 -43 c0 -23 7
-87 15 -142 19 -129 19 -238 0 -345 -17 -100 -32 -140 -51 -140 -8 0 -19 12
-25 26 -9 25 -11 26 -28 10 -25 -23 -72 -21 -78 4 -5 18 -7 18 -34 5 -15 -8
-36 -15 -45 -15 -15 0 -13 5 8 27 33 36 61 98 90 198 19 69 22 104 23 255 0
143 3 177 15 187 12 10 16 7 18 -14 3 -24 6 -25 48 -19z m-641 26 c3 -5 1 -10
-4 -10 -6 0 -11 5 -11 10 0 6 2 10 4 10 3 0 8 -4 11 -10z m353 -39 c3 -33 6
-35 55 -45 35 -8 36 -38 2 -72 -30 -29 -31 -36 -7 -27 45 17 71 79 52 127 -13
36 -13 36 9 36 11 0 23 -9 26 -20 5 -15 12 -19 26 -15 19 6 20 2 17 -106 l-3
-113 -60 -24 c-117 -47 -226 -65 -400 -65 -175 0 -262 16 -364 67 -88 45 -96
82 -36 154 17 20 25 40 22 51 -3 13 2 21 14 24 13 4 19 14 19 33 0 27 1 27 14
8 9 -12 11 -23 5 -29 -12 -12 -12 -65 1 -65 6 0 10 7 10 15 0 8 9 19 21 25 19
11 21 9 19 -27 -3 -52 -1 -66 8 -81 11 -16 72 -34 72 -21 0 5 -5 9 -12 9 -20
0 -48 32 -48 57 0 12 3 22 8 21 4 -1 27 2 50 6 32 6 41 11 33 19 -14 14 -14
54 0 63 15 9 30 -16 26 -43 -4 -21 0 -23 39 -23 42 0 44 -1 44 -29 0 -16 -7
-36 -15 -45 -21 -21 -19 -29 5 -16 10 6 24 27 31 48 9 31 8 45 -5 76 -9 21
-16 41 -16 45 0 3 45 7 100 8 l100 2 -6 -68 c-6 -65 -6 -68 21 -89 28 -23 55
-29 55 -13 0 5 -9 11 -20 14 -23 6 -45 49 -37 70 3 8 24 18 46 22 36 6 41 10
41 34 0 53 33 54 38 2z m-78 11 c0 -4 -5 -13 -12 -20 -18 -18 -28 -15 -28 8 0
13 7 20 20 20 11 0 20 -4 20 -8z m-438 -54 c-15 -15 -26 -4 -18 18 5 13 9 15
18 6 9 -9 9 -15 0 -24z m-176 -9 c3 -6 -6 -23 -20 -38 -34 -36 -48 -83 -35
-121 10 -28 68 -72 131 -101 26 -11 26 -14 22 -78 -5 -61 11 -143 41 -213 5
-14 2 -18 -12 -18 -10 0 -37 -9 -58 -20 -47 -24 -65 -20 -65 15 0 25 -14 34
-25 15 -3 -5 -13 -10 -21 -10 -12 0 -12 4 -4 21 9 15 6 43 -14 122 -41 162
-33 376 15 416 28 23 35 25 45 10z m1099 -121 c22 -89 63 -174 122 -250 56
-73 83 -132 83 -184 0 -51 -8 -59 -30 -32 -20 26 -35 18 -43 -22 l-6 -30 -25
25 c-33 33 -56 32 -56 -1 0 -36 -18 -20 -54 47 l-28 51 11 124 c9 94 9 143 0
207 -10 73 -8 137 5 137 2 0 12 -33 21 -72z m-235 -133 c0 -35 -26 -46 -61
-26 l-29 16 38 17 c50 22 52 22 52 -7z m-717 -57 c-10 -12 -19 -15 -21 -8 -7
20 7 40 23 34 14 -6 14 -9 -2 -26z m631 6 c9 -3 16 -10 16 -15 0 -14 -26 -10
-40 6 -13 16 -3 20 24 9z m-440 -29 c-19 -29 -27 -31 -44 -10 -17 20 -4 35 31
35 29 0 29 0 13 -25z m425 -42 c56 -76 56 -92 -2 -156 -42 -45 -87 -58 -217
-64 -123 -6 -181 6 -222 47 -37 38 -37 79 3 141 42 66 51 72 83 58 l26 -12
-36 -39 c-19 -22 -34 -47 -32 -56 5 -27 50 -26 91 3 21 14 44 25 50 25 19 0
37 21 37 42 0 12 8 18 23 18 12 0 45 13 72 29 28 16 56 29 63 30 6 1 34 -29
61 -66z m-539 42 c15 -18 13 -20 -17 -29 -24 -8 -38 7 -29 29 7 19 30 19 46 0z
m620 -15 c0 -5 -4 -10 -10 -10 -5 0 -10 5 -10 10 0 6 5 10 10 10 6 0 10 -4 10
-10z m-675 -19 c6 -10 -24 -45 -32 -37 -7 7 7 46 17 46 5 0 11 -4 15 -9z m114
-35 c-3 -3 -11 5 -18 17 -13 21 -12 21 5 5 10 -10 16 -20 13 -22z m231 24 c0
-5 -7 -10 -15 -10 -8 0 -15 5 -15 10 0 6 7 10 15 10 8 0 15 -4 15 -10z m300 0
c0 -5 -2 -10 -4 -10 -3 0 -8 5 -11 10 -3 6 -1 10 4 10 6 0 11 -4 11 -10z
m-566 -16 c8 -21 -1 -34 -25 -34 -14 0 -19 7 -19 25 0 29 34 36 44 9z m201
-24 c-10 -11 -23 -20 -28 -20 -6 0 -2 9 8 20 10 11 23 20 28 20 6 0 2 -9 -8
-20z m-265 -5 c0 -8 -9 -15 -20 -15 -22 0 -27 15 -7 23 21 9 27 7 27 -8z m73
-34 c-3 -12 -11 -17 -19 -14 -21 8 -17 33 5 33 14 0 18 -5 14 -19z m-47 -42
c33 -20 34 -21 16 -44 -9 -14 -23 -25 -29 -25 -20 0 -45 47 -38 70 8 25 10 25
51 -1z m74 -68 c0 -24 -12 -32 -30 -21 -11 7 -11 11 -1 24 18 22 31 20 31 -3z
m62 -77 c-5 -28 -13 -21 -27 24 -6 21 -5 23 13 13 14 -8 18 -17 14 -37z m-361
-11 c-10 -17 -10 -16 -11 3 0 23 13 41 18 25 2 -6 -1 -18 -7 -28z"/>
<path d="M945 1443 c-50 -8 -65 -29 -65 -93 0 -42 5 -64 19 -81 l18 -23 27 42
c19 30 33 42 50 42 89 0 211 -118 247 -238 16 -54 39 -53 57 3 16 50 3 116
-40 197 -57 108 -189 171 -313 151z m159 -44 c99 -36 176 -151 176 -260 0 -22
-3 -39 -7 -39 -5 0 -16 21 -27 46 -26 63 -116 158 -179 188 -29 14 -78 28
-109 32 -60 7 -75 23 -40 43 29 18 127 12 186 -10z m-164 -68 c0 -5 -7 -14
-15 -21 -8 -7 -15 -10 -15 -7 0 3 -3 12 -6 21 -4 12 0 16 15 16 12 0 21 -4 21
-9z"/>
</g>
</svg>
